<svg version="1.1" xmlns="http://www.w3.org/2000/svg" xmlns:xlink="http://www.w3.org/1999/xlink" width="260.14329" height="235.11759" viewBox="0,0,260.14329,235.11759"><g transform="translate(-110.5634,-77.41814)"><g data-paper-data="{&quot;isPaintingLayer&quot;:true}" fill-rule="nonzero" stroke-miterlimit="10" stroke-dasharray="" stroke-dashoffset="0" style="mix-blend-mode: normal"><g data-paper-data="{&quot;index&quot;:null}" stroke-linejoin="miter"><path d="M328.286,151.228h-4.532v-30.15h4.532z" fill="#d974e8" stroke="#5e154d" stroke-width="0.6" stroke-linecap="butt"/><g><path d="M299.624,128.542h17.919c2.463,-0.284 4.704,-1.556 6.211,-3.522v22.308c-1.507,-1.966 -3.748,-3.237 -6.211,-3.522h-17.919c-4.218,0 -7.638,-3.417 -7.638,-7.632c0,-4.215 3.42,-7.632 7.638,-7.632z" fill="#8b49d4" stroke="#5e154d" stroke-width="0.6" stroke-linecap="butt"/><path d="M304.282,143.806v11.196h-4.196v-11.196h4.196" fill="#8b49d4" stroke="#5e154d" stroke-width="0.6" stroke-linecap="butt"/><path d="M295.889,136.258c0,-2.316 1.879,-4.193 4.197,-4.193" fill="none" stroke="#ffffff" stroke-width="0.6" stroke-linecap="butt"/><path d="M345.03,136.174h-7.134" fill="none" stroke="#5e154d" stroke-width="1.2" stroke-linecap="round"/><path d="M337.896,147.705l5.456,5.41" fill="none" stroke="#5e154d" stroke-width="1.2" stroke-linecap="round"/><path d="M337.896,124.643l5.456,-5.41" fill="none" stroke="#5e154d" stroke-width="1.2" stroke-linecap="round"/></g></g><g data-paper-data="{&quot;index&quot;:null}" stroke="none" stroke-width="1" stroke-linecap="butt" stroke-linejoin="miter"><path d="M125.771,161.509c0,-4.403 2.14,-6.499 5.917,-6.499h180.828c3.477,0.295 6.266,2.994 6.672,6.457l7.05,45.119l24.844,17.319c3.202,1.737 4.978,5.287 4.448,8.889v17.57h-229.759z" fill="#f7c1d8"/><path d="M355.53,249.232v37.11h-28.117c0.069,-6.831 -2.622,-13.4 -7.464,-18.222c-4.842,-4.822 -11.425,-7.49 -18.26,-7.399c-6.737,-0.052 -13.201,2.66 -17.881,7.503c-4.68,4.843 -7.166,11.392 -6.879,18.118h-73.565c-0.561,-13.987 -12.072,-25.037 -26.081,-25.037c-14.009,0 -25.52,11.05 -26.081,25.037h-25.431v-37.11z" fill="#da53d6"/></g><path d="M235.128,142.932v12.118h-5.245v-12.118h5.245" data-paper-data="{&quot;index&quot;:null}" fill="#5e154d" stroke="#5e154d" stroke-width="1.512" stroke-linecap="round" stroke-linejoin="round"/><path d="M164.375,142.806v12.118h-5.245v-12.118h5.245" data-paper-data="{&quot;index&quot;:null}" fill="#5e154d" stroke="#5e154d" stroke-width="1.512" stroke-linecap="round" stroke-linejoin="round"/><g data-paper-data="{&quot;index&quot;:null}"><path d="M243.057,116.821c-6.531,3.409 -27.725,6.986 -47.487,6.018c-19.762,-0.968 -35.352,-3.704 -41.757,-7.912c-8.427,-5.766 -9.607,-10.733 -8.427,-16.836c1.18,-6.102 4.129,-9.133 12.304,-9.091c8.174,0.043 23.975,7.197 37.669,7.871c13.694,0.673 32.36,-3.704 40.324,-5.093c7.344,-1.878 14.84,2.465 16.854,9.765c1.433,5.008 -0.126,10.311 -9.48,15.278z" fill="#ffd78f" stroke="#e89f1f" stroke-width="0.9" stroke-linecap="butt" stroke-linejoin="round"/><path d="M254.695,104.502c-9.846,1.71 -28.079,10.737 -54.533,10.493c-26.453,-0.244 -34.25,-4.866 -43.589,-8.693c-7.776,-3.054 -29.58,-1.765 -25.427,-6.688c4.153,-4.923 11.237,-5.958 17.282,-3.443c6.424,2.239 28.16,11.462 46.12,11.462c17.96,0 35.531,-3.134 46.56,-8.019c11.029,-4.886 19.483,-3.226 23.751,2.067l1.141,2.821c-3.824,-0.784 -7.453,-0.649 -11.305,0z" fill="#f4569e" stroke="none" stroke-width="1" stroke-linecap="butt" stroke-linejoin="miter"/><path d="M130.856,100.312c8.065,-3.426 16.891,0.585 24.576,3.719c9.333,3.803 17.187,7.981 43.622,8.357c26.434,0.376 43.537,-9.485 53.376,-11.24c3.881,-0.576 7.839,-0.405 11.655,0.502c3.8,5.641 2.449,15.251 -8.657,22.522c-14.104,9.234 -38.005,12.828 -61.653,12.828c-24.872,0 -44.635,-6.393 -53.883,-12.745c-10.177,-7.061 -12.077,-16.296 -10.303,-21.394c0.319,-0.896 0.744,-1.751 1.267,-2.549z" fill="#ea3681" stroke="none" stroke-width="1" stroke-linecap="butt" stroke-linejoin="miter"/><path d="M129.589,102.838c0.329,-0.857 0.754,-1.675 1.268,-2.437c4.151,-5.081 11.191,-6.798 17.234,-4.202c6.42,2.311 27.245,11.471 45.198,11.471c17.952,0 37.172,-3.319 46.465,-7.563c11.024,-5.043 19.642,-4.707 23.908,0.756l0.422,0.588c3.802,5.673 2.45,15.338 -8.659,22.649c-14.109,9.286 -38.017,12.9 -61.672,12.9c-24.88,0 -44.648,-6.429 -53.899,-12.816c-10.138,-6.933 -12.039,-16.22 -10.265,-21.346z" fill="none" stroke="#ea3681" stroke-width="0.9" stroke-linecap="butt" stroke-linejoin="round"/><path d="M242.362,143.599c-9.856,5.167 -31.589,8.401 -49.111,8.401c-20.596,0 -33.948,-2.31 -43.087,-7.897c-7.834,-4.831 -10.656,-12.308 -8.424,-16.55c2.232,-4.243 6.36,-5.503 13.309,-5.755c5.476,-0.21 23.082,3.445 37.107,3.445c13.15,-0.096 26.262,-1.404 39.171,-3.907c8.044,-1.764 18.448,-2.856 21.649,3.907c3.369,6.888 -1.938,13.903 -10.614,18.356z" fill="#fdbb38" stroke="#e89f1f" stroke-width="0.9" stroke-linecap="butt" stroke-linejoin="round"/><path d="M245,114.516c-2.407,-1.974 -5.368,-2.952 -8.364,-2.765c-4.892,0.599 -5.436,4.608 -9.869,5.208c-4.432,0.599 -6.063,-3.134 -11.082,-1.844c-5.018,1.291 -4.181,4.148 -9.869,4.609c-5.06,0 -5.687,-3.318 -11.416,-3.134c-5.729,0.184 -5.604,3.41 -11.751,3.41c-4.684,0 -5.729,-4.147 -10.58,-4.931c-4.851,-0.783 -5.854,2.857 -11.876,1.659c-3.166,-0.995 -5.788,-3.447 -7.193,-6.728" fill="none" stroke="#fde982" stroke-width="1.8" stroke-linecap="round" stroke-linejoin="round"/><path d="M142,98c3.81,0.416 7.525,1.429 11,3" fill="none" stroke="#ffffff" stroke-width="0.9" stroke-linecap="round" stroke-linejoin="round"/><path d="M157,102.15l3,1.7" fill="none" stroke="#ffffff" stroke-width="0.9" stroke-linecap="round" stroke-linejoin="round"/><path d="M228.05,143l1.9,-2" fill="none" stroke="#e89f1f" stroke-width="0.9" stroke-linecap="round" stroke-linejoin="round"/><path d="M236,140.2l2,-0.4" fill="none" stroke="#e89f1f" stroke-width="0.9" stroke-linecap="round" stroke-linejoin="round"/><path d="M220,146.075l-2,-0.15" fill="none" stroke="#e89f1f" stroke-width="0.9" stroke-linecap="round" stroke-linejoin="round"/><path d="M209,148.7l2,-1.4" fill="none" stroke="#e89f1f" stroke-width="0.9" stroke-linecap="round" stroke-linejoin="round"/><path d="M223.75,140.9l-1.5,-1.8" fill="none" stroke="#e89f1f" stroke-width="0.9" stroke-linecap="round" stroke-linejoin="round"/><path d="M213,141.55l-2,0.9" fill="none" stroke="#e89f1f" stroke-width="0.9" stroke-linecap="round" stroke-linejoin="round"/><path d="M162.55,146l-1.1,-2" fill="none" stroke="#e89f1f" stroke-width="0.9" stroke-linecap="round" stroke-linejoin="round"/><path d="M170,145.425l-2,-0.85" fill="none" stroke="#e89f1f" stroke-width="0.9" stroke-linecap="round" stroke-linejoin="round"/><path d="M189,144.85l-2,0.3" fill="none" stroke="#e89f1f" stroke-width="0.9" stroke-linecap="round" stroke-linejoin="round"/><path d="M178,143.075l-2,-0.15" fill="none" stroke="#e89f1f" stroke-width="0.9" stroke-linecap="round" stroke-linejoin="round"/><path d="M157.925,141.25l-1.85,1.5" fill="none" stroke="#e89f1f" stroke-width="0.9" stroke-linecap="round" stroke-linejoin="round"/><path d="M176,147.5l-2,1" fill="none" stroke="#e89f1f" stroke-width="0.9" stroke-linecap="round" stroke-linejoin="round"/><path d="M204.375,144.175l1.25,1.65" fill="none" stroke="#e89f1f" stroke-width="0.9" stroke-linecap="round" stroke-linejoin="round"/><path d="M201,148.9l-2,0.2" fill="none" stroke="#e89f1f" stroke-width="0.9" stroke-linecap="round" stroke-linejoin="round"/><path d="M183.85,148.775l-1.7,-1.55" fill="none" stroke="#e89f1f" stroke-width="0.9" stroke-linecap="round" stroke-linejoin="round"/><path d="M190.6,149l0.8,-2" fill="none" stroke="#e89f1f" stroke-width="0.9" stroke-linecap="round" stroke-linejoin="round"/><path d="M196.975,145.65l-1.95,-1.3" fill="none" stroke="#e89f1f" stroke-width="0.9" stroke-linecap="round" stroke-linejoin="round"/></g><g data-paper-data="{&quot;index&quot;:null}" stroke-linecap="butt"><path d="M310.976,174.497c2.015,0 3.903,0.503 4.449,4.193l4.867,33.546c-0.019,1.071 -0.549,2.068 -1.426,2.684l-10.156,-40.632z" fill="#b3e0d7" stroke="none" stroke-width="1" stroke-linejoin="miter"/><path d="M305.017,174.539l10.324,41.387h-9.736c-2.017,0 -3.651,-1.633 -3.651,-3.648v-34.133c0.014,-1.784 1.304,-3.302 3.063,-3.606z" fill="#b3e0d7" stroke="none" stroke-width="1" stroke-linejoin="miter"/><path d="M305.605,174.497h3.105l10.156,40.633c-0.672,0.522 -1.5,0.803 -2.35,0.796h-1.175l-10.324,-41.387z" fill="#d4fff5" stroke="none" stroke-width="1" stroke-linejoin="miter"/><path d="M305.017,174.539h5.959c2.015,0 3.903,0.503 4.449,4.193l4.867,33.546c-0.019,1.071 -0.549,2.068 -1.426,2.684c-0.672,0.522 -1.5,0.803 -2.35,0.797h-10.911c-2.017,0 -3.651,-1.634 -3.651,-3.648v-33.966c0.014,-1.784 1.304,-3.302 3.063,-3.606z" fill="none" stroke="#5e154d" stroke-width="1.512" stroke-linejoin="round"/></g><g data-paper-data="{&quot;index&quot;:null}" stroke-linejoin="miter"><path d="M179.607,182.912v44.91h-8.981l-11.247,-44.91h20.228" fill="#b3e0d7" stroke="none" stroke-width="1" stroke-linecap="butt"/><path d="M159.379,182.912l11.247,44.91h-6.043l-11.247,-44.91h6.043" fill="#d4fff5" stroke="none" stroke-width="1" stroke-linecap="butt"/><path d="M149.937,182.912l11.205,44.91h-3.399l-11.247,-44.91h3.441" fill="#d4fff5" stroke="none" stroke-width="1" stroke-linecap="butt"/><path d="M153.336,182.912l11.247,44.91h-3.441l-11.205,-44.91h3.399" fill="#b3e0d7" stroke="none" stroke-width="1" stroke-linecap="butt"/><path d="M145.111,182.912h1.385l11.247,44.91h-12.632v-44.91" fill="#b3e0d7" stroke="none" stroke-width="1" stroke-linecap="butt"/><g stroke="#5e154d" stroke-width="1.512"><path d="M228.286,227.822v4.528h-87.707v-4.528h87.707" fill="#996cd4" stroke-linecap="round"/><path d="M144.776,166.055h39.573h0.126h39.615l3.693,16.857h-43.308h-0.126h-43.266l3.693,-16.857" fill="#ea3681" stroke-linecap="butt"/><path d="M223.712,182.912v44.91h-44.105v-44.91h44.105" fill="#43c3d7" stroke-linecap="round"/><path d="M223.712,232.35v7.129h-4.197v-7.129h4.197" fill="#5e154d" stroke-linecap="round"/><path d="M148.762,232.35v7.129h-4.196v-7.129h4.196" fill="#5e154d" stroke-linecap="round"/><path d="M179.607,182.912v44.91h-34.496v-44.91h34.496" fill="none" stroke-linecap="round"/></g></g><g data-paper-data="{&quot;index&quot;:null}" stroke-linecap="butt"><path d="M246.546,174.497h43.895c2.017,0 3.651,1.634 3.651,3.648v75.73c-12.161,1.952 -21.811,11.277 -24.172,23.356h-23.29c-1.984,-0.022 -3.587,-1.624 -3.609,-3.606v-95.48c-0.001,-1.966 1.558,-3.58 3.525,-3.648z" fill="#fc9fe4" stroke="#5e154d" stroke-width="1.512" stroke-linejoin="round"/><path d="M286.539,183.345v33.085h-4.617l-8.267,-33.085h12.884" fill="#b3e0d7" stroke="none" stroke-width="1" stroke-linejoin="miter"/><path d="M273.655,183.345l8.267,33.085h-6.085l-8.225,-33.085h6.043" fill="#d4fff5" stroke="none" stroke-width="1" stroke-linejoin="miter"/><path d="M267.612,183.345l8.225,33.085h-3.399l-8.225,-33.085h3.399" fill="#b3e0d7" stroke="none" stroke-width="1" stroke-linejoin="miter"/><path d="M264.213,183.345l8.225,33.085h-3.441l-8.225,-33.085h3.441" fill="#d4fff5" stroke="none" stroke-width="1" stroke-linejoin="miter"/><path d="M250.449,183.345h10.323l8.225,33.085h-18.548v-33.085" fill="#b3e0d7" stroke="none" stroke-width="1" stroke-linejoin="miter"/><path d="M286.539,227.793v9.016h-4.197v-9.016h4.197" fill="none" stroke="#d974e8" stroke-width="1.512" stroke-linejoin="round"/></g><g data-paper-data="{&quot;index&quot;:null}" stroke-linejoin="miter"><g stroke-linecap="butt"><path d="M360.814,252.293v10.86h-5.371v-10.86h5.371" fill="#f7c1d8" stroke="#5e154d" stroke-width="2.016"/><path d="M341.174,263.111v4.655h-8.393v-4.655h8.393" fill="none" stroke="#fc9fe4" stroke-width="1.512"/><path d="M125.725,252.293v10.86h-5.539v-10.86h5.539" fill="#8b49d4" stroke="#5e154d" stroke-width="2.016"/><path d="M315.911,227.762h-10.869" fill="none" stroke="#000000" stroke-width="2.016"/><path d="M315.911,232.543h-10.869" fill="none" stroke="#000000" stroke-width="2.016"/><path d="M315.911,237.365h-10.869" fill="none" stroke="#000000" stroke-width="2.016"/><path d="M131.642,155.01h180.828c3.477,0.295 6.266,2.994 6.673,6.457l7.05,45.119l24.843,17.319c3.202,1.737 4.978,5.287 4.449,8.889v53.548h-28.117c-0.011,-6.88 -2.776,-13.469 -7.68,-18.298c-4.904,-4.829 -11.538,-7.496 -18.422,-7.407c-13.574,0.972 -24.176,12.11 -24.466,25.705h-73.481c-0.069,-14.356 -11.736,-25.956 -26.102,-25.956c-14.353,0 -25.18,13.502 -25.557,25.956h-25.935v-124.833c0,-4.403 2.14,-6.499 5.917,-6.499z" fill="none" stroke="#5e154d" stroke-width="2.016"/></g><path d="M352.463,273.301v-10.19h6.463v23.231h-12.884v-13.041h6.421" fill="#d974e8" stroke="#5e154d" stroke-width="2.016" stroke-linecap="butt"/><path d="M301.937,266.13c-11.848,0.321 -21.217,10.133 -20.983,21.973h-6.252c-0.998,-10.363 3.972,-20.395 12.824,-25.885c8.852,-5.491 20.054,-5.491 28.906,0c8.852,5.49 13.822,15.522 12.824,25.885h-6.252c0.234,-11.872 -9.186,-21.698 -21.067,-21.973z" fill="#fdbb38" stroke="#5e154d" stroke-width="1.512" stroke-linecap="butt"/><path d="M177.888,266.13c-11.838,0.343 -21.195,10.141 -20.983,21.973h-6.252c-0.998,-10.363 3.972,-20.395 12.824,-25.885c8.852,-5.491 20.054,-5.491 28.906,0c8.852,5.49 13.822,15.522 12.824,25.885h-6.211c0.211,-11.879 -9.221,-21.698 -21.108,-21.973z" fill="#fdbb38" stroke="#5e154d" stroke-width="1.512" stroke-linecap="butt"/><path d="M349.484,282.4v-5.87" fill="none" stroke="#ffffff" stroke-width="1.512" stroke-linecap="round"/></g><g data-paper-data="{&quot;index&quot;:null}" stroke-linejoin="miter"><g fill="none" stroke="#ffffff" stroke-width="2.52" stroke-linecap="butt"><path d="M131.205,171.581v-6.29c-0.17,-1.394 0.299,-2.791 1.277,-3.8c0.977,-1.01 2.359,-1.524 3.759,-1.4h5.623"/><path d="M148.998,160.091h-3.357"/></g><g fill="none" stroke="#cc48cc" stroke-width="1.512" stroke-linecap="butt"><path d="M231.222,256.621l3.147,2.181"/><path d="M215.946,258.382l0.924,-3.732"/><path d="M225.389,269.704l-0.462,-3.816"/><path d="M254.89,280.9l3.609,1.342"/><path d="M346.08,257.124l-3.483,-1.635"/><path d="M337.562,279.055l-1.134,-3.69"/><path d="M326.735,256.328l-1.931,3.312"/><path d="M311.123,254.399l-3.818,-0.252"/><path d="M287.035,260.689l2.854,-2.6"/><path d="M275.579,273.017v-3.858"/><path d="M214.562,278.426l0.923,-3.732"/><path d="M206.085,264.379l3.147,2.18"/><path d="M197.734,254.944l-2.267,3.145"/><path d="M181.535,254.273l-3.861,0.21"/><path d="M163.91,257.711l-2.644,-2.851"/><path d="M148.466,263.33l3.106,-2.264"/><path d="M142.256,256.957l-3.609,-1.342"/><path d="M133.779,263.582l0.629,3.774"/><path d="M134.45,279.558l1.763,-3.396"/><path d="M143.473,271.465l3.147,2.223"/><path d="M233.74,276.581l-3.609,1.258"/></g><path d="M286.532,183.322v33.042h-36.09v-33.042h36.09" fill="none" stroke="#5e154d" stroke-width="1.512" stroke-linecap="butt"/><g stroke="#5e154d" stroke-width="1.512" stroke-linecap="butt"><path d="M227.95,182.889v4.822c0,2.664 -2.161,4.823 -4.826,4.823c-2.665,0 -4.826,-2.159 -4.826,-4.823v-4.822z" fill="#ffffff"/><path d="M218.13,182.889v4.822c0.171,1.823 -0.706,3.585 -2.263,4.549c-1.557,0.964 -3.526,0.964 -5.084,0c-1.557,-0.964 -2.434,-2.726 -2.263,-4.549v-4.822z" fill="#f7c1d8"/><path d="M208.52,182.889v4.822c0,2.664 -2.161,4.823 -4.826,4.823c-2.665,0 -4.826,-2.159 -4.826,-4.823v-4.822z" fill="#ffffff"/><path d="M198.868,182.889v4.822c0.171,1.823 -0.706,3.585 -2.263,4.549c-1.557,0.964 -3.526,0.964 -5.084,0c-1.557,-0.964 -2.434,-2.726 -2.263,-4.549v-4.822z" fill="#f7c1d8"/><path d="M189.258,182.889v4.822c0,2.664 -2.161,4.823 -4.826,4.823c-2.665,0 -4.826,-2.159 -4.826,-4.823v-4.822z" fill="#ffffff"/><path d="M179.606,182.889v4.822c0,2.664 -2.161,4.823 -4.826,4.823c-2.665,0 -4.826,-2.159 -4.826,-4.823v-4.822z" fill="#f7c1d8"/><path d="M169.954,182.889v4.822c0.171,1.823 -0.706,3.585 -2.263,4.549c-1.557,0.964 -3.526,0.964 -5.084,0c-1.557,-0.964 -2.434,-2.726 -2.263,-4.549v-4.822z" fill="#ffffff"/><path d="M160.344,182.889v4.822c0,2.664 -2.161,4.823 -4.826,4.823c-2.665,0 -4.826,-2.159 -4.826,-4.823v-4.822z" fill="#f7c1d8"/><path d="M150.692,182.889v4.822c0.171,1.823 -0.706,3.585 -2.263,4.549c-1.557,0.964 -3.526,0.964 -5.084,0c-1.557,-0.964 -2.434,-2.726 -2.263,-4.549v-4.822z" fill="#ffffff"/></g><path d="M313.836,275.043c3.016,3.013 4.883,7.175 4.883,11.768c0,4.593 -1.867,8.754 -4.883,11.768c-3.016,3.014 -7.181,4.879 -11.777,4.879c-4.596,0 -8.761,-1.865 -11.777,-4.879c-3.016,-3.014 -4.883,-7.175 -4.883,-11.768c0,-4.593 1.867,-8.755 4.883,-11.768c3.016,-3.014 7.181,-4.879 11.777,-4.879c4.596,0 8.761,1.865 11.777,4.879z" fill="#5e154d" stroke="#5e154d" stroke-width="2.016" stroke-linecap="round"/></g><path d="M308.28,280.589c1.603,1.602 2.596,3.814 2.596,6.255c0,2.441 -0.993,4.653 -2.596,6.254c-1.602,1.602 -3.816,2.593 -6.259,2.593c-2.443,0 -4.657,-0.991 -6.26,-2.593c-1.603,-1.601 -2.595,-3.813 -2.595,-6.254c0,-2.441 0.992,-4.653 2.595,-6.255c1.603,-1.602 3.817,-2.593 6.26,-2.593c2.443,0 4.657,0.991 6.259,2.593z" data-paper-data="{&quot;index&quot;:null}" fill="#c5a2fc" stroke="#c5a2fc" stroke-width="1.008" stroke-linecap="butt" stroke-linejoin="miter"/><path d="M305.7,283.168c0.942,0.941 1.525,2.241 1.525,3.676c0,1.434 -0.583,2.734 -1.525,3.675c-0.942,0.942 -2.243,1.524 -3.679,1.524c-1.436,0 -2.737,-0.582 -3.679,-1.524c-0.942,-0.941 -1.525,-2.241 -1.525,-3.675c0,-1.435 0.583,-2.735 1.525,-3.676c0.942,-0.941 2.243,-1.524 3.679,-1.524c1.436,0 2.737,0.583 3.679,1.524z" data-paper-data="{&quot;index&quot;:null}" fill="#ffffff" stroke="#8b49d4" stroke-width="1.512" stroke-linecap="round" stroke-linejoin="round"/><path d="M189.665,275.075c3.016,3.014 4.883,7.176 4.883,11.769c0,4.592 -1.867,8.754 -4.883,11.768c-3.016,3.013 -7.181,4.879 -11.777,4.879c-4.596,0 -8.761,-1.866 -11.777,-4.879c-3.016,-3.014 -4.883,-7.176 -4.883,-11.768c0,-4.593 1.867,-8.755 4.883,-11.769c3.016,-3.013 7.181,-4.878 11.777,-4.878c4.596,0 8.761,1.865 11.777,4.878z" data-paper-data="{&quot;index&quot;:null}" fill="#5e154d" stroke="#5e154d" stroke-width="2.016" stroke-linecap="round" stroke-linejoin="round"/><path d="M184.147,280.589c1.603,1.602 2.596,3.814 2.596,6.255c0,2.441 -0.993,4.653 -2.596,6.254c-1.602,1.602 -3.816,2.593 -6.259,2.593c-2.443,0 -4.657,-0.991 -6.26,-2.593c-1.602,-1.601 -2.595,-3.813 -2.595,-6.254c0,-2.441 0.993,-4.653 2.595,-6.255c1.603,-1.602 3.817,-2.593 6.26,-2.593c2.443,0 4.657,0.991 6.259,2.593z" data-paper-data="{&quot;index&quot;:null}" fill="#c5a2fc" stroke="#c5a2fc" stroke-width="1.008" stroke-linecap="butt" stroke-linejoin="miter"/><path d="M181.567,283.168c0.942,0.941 1.525,2.241 1.525,3.676c0,1.434 -0.583,2.734 -1.525,3.675c-0.942,0.942 -2.243,1.524 -3.679,1.524c-1.436,0 -2.737,-0.582 -3.679,-1.524c-0.942,-0.941 -1.525,-2.241 -1.525,-3.675c0,-1.435 0.583,-2.735 1.525,-3.676c0.942,-0.941 2.243,-1.524 3.679,-1.524c1.436,0 2.737,0.583 3.679,1.524z" data-paper-data="{&quot;index&quot;:null}" fill="#ffffff" stroke="#8b49d4" stroke-width="1.512" stroke-linecap="round" stroke-linejoin="round"/><g data-paper-data="{&quot;index&quot;:null}"><g fill="#ffffff" stroke="none" stroke-width="1" stroke-linecap="butt" stroke-linejoin="miter"><path d="M210.229,200.696v-1.049h1.385v1.049c0,0.712 0.881,0.335 0.881,1.132v1.509h-3.105v-1.509c0,-0.881 0.839,-0.42 0.839,-1.132z"/><path d="M212.495,203.337h0.588c0.354,0.022 0.63,0.316 0.629,0.671v2.348c0.001,0.355 -0.275,0.649 -0.629,0.671h-0.588z"/><path d="M210.943,207.027h-2.141c-0.37,0 -0.671,-0.3 -0.671,-0.671v-2.348c0,-0.37 0.301,-0.671 0.671,-0.671h3.693v3.69z"/></g><path d="M212.497,209.921v-2.894h0.923v1.887c-0.117,0.889 0.437,1.729 1.301,1.971c1.049,0.461 1.049,1.845 1.049,3.271v10.986c0,1.258 -0.503,2.055 -1.636,2.055h-0.672c0,-3.523 0,-12.58 0,-14.593c0.042,-1.342 -0.965,-1.132 -0.965,-2.683z" fill="#f7c1d8" stroke="none" stroke-width="1" stroke-linecap="butt" stroke-linejoin="miter"/><path d="M206.957,210.885c0.864,-0.242 1.418,-1.082 1.301,-1.971v-1.887h4.197v2.894c0,1.551 1.007,1.341 1.007,2.683v14.593h-5.749c-1.091,0 -1.595,-0.797 -1.595,-2.055v-11.196c0,-1.426 0,-2.6 0.839,-3.061z" fill="#ea3681" stroke="none" stroke-width="1" stroke-linecap="butt" stroke-linejoin="miter"/><path d="M213.714,207.53h-5.582v-4.193h5.582z" fill="none" stroke="#663c1d" stroke-width="1.008" stroke-linecap="round" stroke-linejoin="round"/><path d="M210.231,200.696v-1.049h1.385v1.049c0,0.712 0.881,0.335 0.881,1.132v1.509h-3.106v-1.509c0,-0.881 0.84,-0.42 0.84,-1.132z" fill="none" stroke="#663c1d" stroke-width="1.008" stroke-linecap="round" stroke-linejoin="round"/><path d="M206.957,210.885c0.864,-0.242 1.418,-1.082 1.301,-1.971v-1.887h5.162v1.887c-0.117,0.889 0.437,1.729 1.301,1.971c1.049,0.461 1.049,1.845 1.049,3.271v10.986c0,1.258 -0.503,2.055 -1.636,2.055h-6.421c-1.091,0 -1.595,-0.797 -1.595,-2.055v-11.196c0,-1.426 0,-2.6 0.839,-3.061z" fill="none" stroke="#663c1d" stroke-width="1.008" stroke-linecap="round" stroke-linejoin="round"/></g><g data-paper-data="{&quot;index&quot;:null}"><g fill="#ffffff" stroke="none" stroke-width="1" stroke-linecap="butt" stroke-linejoin="miter"><path d="M197.797,200.696v-1.049h1.385v1.049c0,0.712 0.839,0.335 0.839,1.132v1.509h-3.105v-1.509c0,-0.881 0.881,-0.42 0.881,-1.132z"/><path d="M200.021,203.337h0.588c0.371,0 0.671,0.301 0.671,0.671v2.348c0,0.371 -0.3,0.671 -0.671,0.671h-0.588z"/><path d="M198.552,207.027h-2.14c-0.354,-0.022 -0.63,-0.316 -0.629,-0.671v-2.348c-0.001,-0.355 0.275,-0.649 0.629,-0.671h3.693v3.69z"/></g><path d="M200.023,209.921v-2.894h0.923v1.887c-0.117,0.889 0.437,1.729 1.301,1.971c1.049,0.461 1.049,1.845 1.049,3.271v10.986c0,1.258 -0.504,2.055 -1.595,2.055h-0.713c0,-3.523 0,-12.58 0,-14.593c0.042,-1.342 -0.965,-1.132 -0.965,-2.683z" fill="#fde982" stroke="none" stroke-width="1" stroke-linecap="butt" stroke-linejoin="miter"/><path d="M194.693,210.885c0.864,-0.242 1.418,-1.082 1.301,-1.971v-1.887h4.197v2.894c0,1.551 1.007,1.341 1.007,2.683v14.593h-5.707c-1.134,0 -1.637,-0.797 -1.637,-2.055v-11.196c-0.21,-1.426 -0.21,-2.6 0.839,-3.061z" fill="#fdbb38" stroke="none" stroke-width="1" stroke-linecap="butt" stroke-linejoin="miter"/><path d="M201.282,207.53h-5.582v-4.193h5.582z" fill="none" stroke="#663c1d" stroke-width="1.008" stroke-linecap="round" stroke-linejoin="round"/><path d="M197.799,200.696v-1.049h1.384v1.049c0,0.712 0.84,0.335 0.84,1.132v1.509h-3.106v-1.509c0,-0.881 0.882,-0.42 0.882,-1.132z" fill="none" stroke="#663c1d" stroke-width="1.008" stroke-linecap="round" stroke-linejoin="round"/><path d="M194.693,210.885c0.864,-0.242 1.418,-1.082 1.301,-1.971v-1.887h4.952v1.887c-0.117,0.889 0.437,1.729 1.301,1.971c1.049,0.461 1.049,1.845 1.049,3.271v10.986c0,1.258 -0.504,2.055 -1.595,2.055h-6.42c-1.133,0 -1.637,-0.797 -1.637,-2.055v-11.196c0,-1.426 0,-2.6 1.049,-3.061z" fill="none" stroke="#663c1d" stroke-width="1.008" stroke-linecap="round" stroke-linejoin="round"/></g><path d="M363.98668,258.88594c-0.02825,1.07127 -0.43434,2.06347 -0.85604,3.0795c0.06688,-2.49987 0.15095,-5.02105 0.22229,-7.55064c0.33796,1.43765 0.67553,2.88673 0.63375,4.47113z" fill="#ff0000" stroke="none" stroke-width="0.5" stroke-linecap="butt" stroke-linejoin="miter"/><path d="M362.91553,276.20171c0.04729,0.32458 -0.00051,0.66246 -0.0925,1.00627c0.00511,-0.48415 0.01509,-0.96915 0.02791,-1.45444c0.02129,0.14948 0.04283,0.29887 0.06459,0.44816z" fill="#ff0000" stroke="none" stroke-width="0.5" stroke-linecap="butt" stroke-linejoin="miter"/><path d="M357.19122,281.03932c1.86852,-1.66091 3.52943,0.20761 3.52943,0.20761l1.52123,1.71139c0.6105,0.97558 0.91566,2.22982 1.83151,2.92673c0.32363,0.24627 0.56534,-0.6012 0.74539,-0.96584c0.29384,-0.59509 0.56812,-1.22135 0.65919,-1.87875c0.36559,-2.6391 -0.04464,-5.68849 -0.03294,-8.36161c-0.44719,-2.20459 -1.4798,-4.27794 -1.79603,-6.50509c-0.83823,-5.90347 0.91363,-12.21416 0.01283,-18.08914c-0.24954,-1.6275 -2.20945,-2.45188 -3.16169,-3.79511c-0.82028,-1.15708 -1.3007,-2.54788 -1.64724,-3.92323c-0.92582,-3.67433 -1.04677,-8.55418 -0.67244,-12.37299c0.22383,-2.28349 1.62437,-6.0003 0.28922,-8.24976c-0.21258,-0.35815 -0.91254,-0.96978 -1.76042,-1.63238c-1.1544,1.89147 -3.2128,0.86226 -3.2128,0.86226c-2.55449,-1.31059 -3.34451,-1.35919 -5.14774,-3.8012c-1.03773,-1.40534 -1.15735,-3.39269 -2.3128,-4.70296c-1.39845,-1.58583 -3.30982,-2.74138 -4.44492,-4.52521c-1.43918,-2.2617 -2.60837,-5.0277 -3.74173,-7.46088c-0.27038,-0.58047 -0.2765,-1.33255 -0.74246,-1.77179c-0.65668,-0.61902 -1.79736,-0.55898 -2.42153,-1.21076c-0.37753,-0.39424 -2.4988,-4.71074 -2.88983,-5.49279c-2.19416,-4.38832 -4.66653,-8.51683 -5.66382,-13.34076c-1.18692,-6.04933 -0.7971,-12.28119 -1.24715,-18.4054c-0.09845,-1.33977 -0.87439,-2.70462 -0.51028,-3.99771c0.89639,-3.18344 4.8484,-4.04362 6.74792,-5.9529c1.33944,-1.34632 3.3256,-4.34757 3.44846,-6.282c0.15497,-2.44001 0.50434,-5.96997 0.03294,-8.36161c-0.55516,-2.81659 -2.32943,-4.1226 -3.81089,-6.27557c-1.70867,-2.48319 -1.5931,-3.30076 -2.15272,-6.09887c-0.71719,-1.41457 -1.52928,-2.80324 -2.55086,-4.01639c-0.42747,-0.50763 -0.84575,-1.04527 -1.38929,-1.42604c-1.06557,-0.74648 -2.09448,-1.75769 -3.38128,-1.94963c-0.9588,-0.14301 -1.60935,1.24718 -1.95541,2.15272c-0.92641,2.42416 0.19275,5.04558 -3.00003,6.6738c-2.05352,1.04724 -4.61426,-0.6128 -6.90585,-0.36334c-4.25683,0.4634 -8.10092,1.806 -12.35398,1.82831c-1.5124,0.00793 -3.31894,-0.80527 -4.53633,0.09215c-0.43706,0.32218 -0.27833,1.0537 -0.49218,1.55279c-1.13507,2.64903 -2.26104,4.37009 -2.81153,7.24222c-0.22137,0.60405 -0.76651,1.17702 -0.6641,1.81216c0.0661,0.40993 0.7222,0.41252 1.06142,0.65197c0.71489,0.50464 1.35317,1.11861 2.09785,1.57815c2.10275,1.29761 7.85278,3.63185 7.83858,6.79246c-0.00789,1.75582 -1.49278,3.25075 -2.70799,4.51813c-3.4562,3.60458 -8.92269,1.78262 -13.10412,1.79138c-10.57088,0.02215 -20.77857,0.6907 -31.2063,2.39941c-0.88803,-0.41851 -1.70784,-1.03338 -2.66408,-1.25552c-4.30887,-1.001 -10.00487,2.30284 -8.47755,-6.18449c0.64723,-3.59667 7.73612,-4.90013 10.46762,-5.37555c0.81301,-0.14151 1.67043,0.35966 2.47066,0.15802c1.1016,-0.27758 1.25158,-1.90962 1.70302,-2.95211c0.78729,-1.81807 1.9063,-3.55078 2.24724,-5.50245c0.51248,-2.93369 -0.36166,-7.37897 0.75057,-10.17005c0.81143,-2.03623 2.7601,-2.50089 3.91388,-4.13736c2.30162,-3.2645 3.03757,-6.04159 3.81433,-9.92539c0.78887,-3.85834 0.55111,-7.6864 0.55683,-11.61735c0.00046,-0.31677 0.09837,-4.82728 -0.20476,-5.30177c-1.72566,-2.70117 -5.91186,-0.67645 -8.25406,-1.36967c-2.25654,-0.66786 -3.80365,-2.94327 -6.05382,-3.63229c-0.75261,-0.23046 -1.57258,0.07746 -2.35957,0.09071c-4.05574,0.0683 -7.85985,0.20099 -11.86129,0.59322c-5.28632,0.51817 -10.48689,-0.44522 -15.73993,0.60538c-6.76511,0.02515 -13.14058,0.56932 -19.77324,1.78735c-5.04611,0.92667 -11.00277,2.28999 -16.15963,1.18485c-0.94855,-0.20328 -1.69092,-0.98822 -2.62026,-1.26643c-3.43009,-1.02686 -6.54121,-1.98392 -9.7516,-3.39627c-0.88714,0.68057 -2.07321,0.44336 -2.07321,0.44336c-4.18599,-0.8372 -9.28206,-1.11975 -12.99357,-3.39126c-0.60245,-0.36871 -0.76697,-1.27352 -1.39663,-1.59355c-1.09542,-0.55676 -6.23112,1.88019 -7.27229,1.99428c-0.95192,0.10431 -1.92866,-0.18027 -2.8728,-0.02011c-2.23573,0.37926 -4.05108,2.05282 -6.15816,2.89099c-0.86413,0.34374 -1.90615,0.0842 -2.74876,0.47776c-1.9037,0.88919 -2.91187,3.81486 -3.99459,5.31141c-1.50098,2.07467 -3.89362,3.93927 -5.70877,5.75443c-2.0031,2.0031 -2.97488,3.51695 -4.58272,5.74783c-0.43767,0.60727 -1.28398,0.87558 -1.64006,1.53401c-1.14592,2.11896 -0.30957,6.19429 -0.30957,8.50646c0,8.5254 0.60538,16.88042 0.60538,25.42603c0,6.40935 -1.81615,11.91274 -1.81615,18.16145c0,6.28557 -0.61445,12.54009 -0.60538,18.76683c0.00967,6.63532 0.63505,13.62113 -0.01217,20.22394c-0.94905,9.68205 -1.83347,19.65055 -1.80398,29.41736c0,3.6335 -0.85954,8.6011 -0.06688,12.13863c0.50769,2.26576 2.84954,4.24042 2.43735,6.52548c-0.2581,1.43082 -1.70712,2.38648 -2.80331,3.34159c-0.93713,0.81651 -3.21757,0.48353 -3.30672,1.72326c-0.05193,0.72219 0.60164,1.33883 0.70049,2.0561c0.44746,3.24696 -0.1531,7.43105 1.9618,10.28682c1.05673,1.42692 3.26047,2.44231 3.91388,4.13736c0.47816,1.24042 0.15709,2.65465 0.1903,3.98362c0.10572,4.23089 0,8.48048 0,12.71302c-0.06343,0.69007 -0.31826,1.38914 -0.1903,2.0702c0.21511,1.14493 2.23766,0.65076 3.3447,1.01355c0.78087,0.25591 1.38408,0.95667 2.18457,1.14232c1.85933,0.43122 3.82749,-0.25363 5.72578,-0.05471c2.17038,0.22743 4.14339,1.40618 6.28024,1.84909c1.90207,0.39424 3.89611,-0.24131 5.82739,-0.03294c2.01228,0.21711 3.80484,1.41359 5.77647,1.87086c2.83844,0.6583 3.53086,-1.49517 6.79376,0.3065c1.06137,0.58605 1.19266,2.11978 1.92454,3.08638c0.88548,1.16946 3.30254,4.10192 4.59998,4.70603c0.88109,0.41025 1.98058,0.13022 2.86769,0.5273c1.89245,0.84709 3.4371,2.33958 5.28441,3.28107c3.56222,3.56222 11.3018,5.61465 15.84328,2.42153c1.20515,-0.84734 1.59704,-2.47775 2.46058,-3.67134c3.06396,-4.23504 8.37717,-8.89608 12.82141,-11.56172c5.39651,-3.23681 13.93173,-1.58414 20.08116,-1.58414c5.45908,0 11.11239,-0.40493 16.55151,0.00852c5.42864,0.41265 10.65802,1.20225 16.13911,1.20225c4.13811,0 9.12005,-0.73724 13.18579,0.04511c1.06712,0.20534 1.96175,0.99548 3.02691,1.21076c2.22654,0.45002 4.71643,-0.13436 6.76069,0.85609c0.93512,0.45307 1.47913,1.46304 2.2745,2.1317c2.09118,1.75801 4.15125,3.56728 6.33552,5.21044c2.37739,1.21165 4.6551,2.798 6.80665,4.33619c1.60784,1.14949 2.00063,2.66752 4.04861,3.25111c4.31688,1.23012 8.49636,-0.63053 12.23231,-2.29284c1.54626,-0.68801 3.52023,-0.69996 4.70481,-1.90869c1.13158,-1.15466 1.20171,-3.02124 2.06267,-4.38962c0.88355,-1.40428 2.89005,-3.94474 4.29714,-4.95145c4.31586,-3.08779 10.81255,-4.69032 15.99094,-4.70957c3.29995,0.01227 6.0984,0.89978 9.32707,1.22293c3.85707,0.38604 7.98177,-0.01217 11.86129,-0.01217h1.81615c0,0 0.26922,0 0.63096,0.08835c-1.29849,-0.97577 -2.18759,-2.75662 -3.39978,-3.90212l-1.52123,-1.71139c0,0 -1.66091,-1.86852 0.20761,-3.52943zM355.46217,213.07075c1.92335,1.37806 6.1183,4.00887 7.40472,6.29277c1.92761,3.42228 0.65022,7.58834 0.28922,11.12245c-0.34266,3.35463 -0.11868,7.35749 0.53832,10.63151c0.33305,1.65971 2.22836,2.55764 3.19581,3.94673c0.83977,1.20575 1.35482,2.64223 1.68136,4.07486c1.31731,5.77942 -0.82932,12.38015 0.01283,18.23377c0.33495,2.32817 1.37982,4.50588 1.83626,6.81331c0.01436,3.86296 1.3272,10.95366 -1.79528,13.9749c-1.42307,1.37693 -3.36161,3.02827 -5.30843,2.66645c-0.08953,-0.01664 -0.17714,-0.03707 -0.26294,-0.06105c0.40553,0.36928 0.71962,0.94132 0.71962,1.82746c0,2.5 -2.5,2.5 -2.5,2.5h-1.81615c-4.04579,0 -8.3306,0.38988 -12.35398,-0.01217c-3.09285,-0.30906 -5.69369,-1.21234 -8.83438,-1.1986c-4.579,-0.02004 -11.37181,1.52849 -14.45667,5.19182c-1.77611,2.10916 -2.476,5.53099 -4.35854,7.39434c-1.12786,1.11637 -4.75589,2.29681 -6.19206,2.93436c-4.65018,2.06431 -10.32106,4.18584 -15.61525,2.55021c-2.20395,-0.6809 -3.75984,-2.67354 -5.6375,-4.01347c-2.04779,-1.46135 -4.23744,-3.0268 -6.51175,-4.13915c-2.38778,-1.78669 -4.74436,-3.7219 -6.98288,-5.68643c-0.50701,-0.44495 -0.76126,-1.18563 -1.35779,-1.50059c-1.04241,-0.55039 -4.64865,-0.21639 -5.34694,-0.35468c-1.06599,-0.2111 -1.96317,-0.98859 -3.02691,-1.21076c-2.68507,-0.5608 -6.48997,0.04511 -9.21334,0.04511c-6.65232,0 -12.99441,-0.70651 -19.57842,-1.21928c-5.29701,-0.41254 -10.82138,0.00852 -16.13911,0.00852c-4.91309,0 -10.99866,-1.03353 -15.77093,-0.06688c-0.98956,0.20044 -3.39713,2.203 -3.91744,2.59379c-3.05269,2.29274 -6.94352,5.39541 -9.158,8.5425c-1.15078,1.63541 -1.97077,3.63504 -3.59324,4.804c-4.00465,2.88528 -8.91634,2.54867 -13.45432,1.63411c-3.53403,-0.71223 -5.6791,-1.49867 -8.23607,-4.05564c-1.55774,-0.76188 -2.81513,-2.07289 -4.4017,-2.77275c-0.99381,-0.43838 -2.22448,-0.17841 -3.18613,-0.68346c-1.65395,-0.86864 -5.2399,-4.59771 -6.2969,-6.19085c-0.33643,-0.50708 0.01881,-1.43376 -0.49699,-1.75668c-0.49523,-0.31004 -1.12928,0.33973 -1.71258,0.37337c-1.19865,0.06914 -2.42749,0.18553 -3.60129,-0.06688c-1.76463,-0.37946 -3.32264,-1.60024 -5.1204,-1.76143c-1.39813,-0.12536 -5.06234,0.20365 -6.28024,-0.03294c-1.9941,-0.38738 -3.80492,-1.59323 -5.82739,-1.7832c-1.54226,-0.14487 -5.01319,0.2396 -6.38186,-0.05471c-0.96144,-0.20674 -1.7268,-0.96446 -2.65849,-1.2792c-3.11648,-1.05282 -4.6192,0.04005 -6.34141,-3.8295c-0.54055,-1.21453 -0.12687,-2.65574 -0.1903,-3.98362c0,-3.02691 0,-6.05382 0,-9.08073c0,-1.90189 0.82252,-3.90876 0.1903,-5.70249c-0.50785,-1.44089 -2.47653,-1.87426 -3.3507,-3.12722c-2.58445,-3.70434 -2.57056,-8.44059 -2.88125,-12.71769c-0.09733,-1.33985 -0.91304,-2.71613 -0.51028,-3.99771c0.41543,-1.32188 1.685,-2.2299 2.7471,-3.11979c0.69174,-0.57958 1.60226,-0.83233 2.42153,-1.21076c0.26583,-0.12279 0.86363,0.00006 0.82898,-0.2907c-0.19684,-1.65152 -2.04686,-2.74735 -2.40571,-4.37139c-0.8773,-3.97047 -0.06688,-9.22179 -0.06688,-13.2874c0.02618,-9.93689 0.82231,-20.0615 1.82831,-29.91005c0.65658,-6.42779 -0.02096,-13.26659 -0.01217,-19.73125c0.00849,-6.23922 0.60538,-12.47321 0.60538,-18.76683c0,-6.33671 1.81615,-11.75261 1.81615,-18.16145c0,-8.54573 -0.60538,-16.89696 -0.60538,-25.42603c0,-3.45363 -0.63999,-7.62506 0.9012,-10.86575c0.41422,-0.87099 1.43458,-1.31137 1.99223,-2.09828c1.67612,-2.3652 2.99441,-4.25082 5.10339,-6.35981c1.6079,-1.6079 3.88142,-3.28548 5.1881,-5.14244c1.63288,-2.32055 2.94606,-5.36056 5.69151,-6.79623c0.99998,-0.52292 2.25808,-0.31199 3.30506,-0.733c1.04412,-0.41986 1.85434,-1.30091 2.88376,-1.75562c2.31515,-1.02265 4.93651,-1.20289 7.4575,-1.42731c3.77373,-0.33595 5.46288,-2.97965 9.6784,-1.63801c0.96106,0.30587 1.38594,1.49546 2.23566,2.03874c1.93853,1.23942 4.70308,1.70816 7.3273,2.07326c0.9184,-1.83561 2.98391,-1.1471 2.98391,-1.1471l0.00002,0.00002l2.14361,0.74102c3.77926,1.89355 7.20586,2.90817 11.15733,4.09628c0.79964,0.24043 1.40953,0.9658 2.2228,1.1551c4.37275,1.01779 9.82205,-0.46433 14.10946,-1.23668c6.7562,-1.21709 13.28859,-1.8751 20.18196,-1.84494c5.26538,-1.05308 10.45818,-0.06587 15.73993,-0.60538c4.15802,-0.42473 8.13318,-0.67451 12.35398,-0.61755c1.23167,0.01662 2.5131,-0.25887 3.69424,0.09071c2.25654,0.66786 3.80365,2.94327 6.05382,3.63229c4.78115,1.46403 6.90474,-2.30876 11.11815,3.47339c0.95924,1.31638 0.79468,3.16739 0.99749,4.78352c0.62271,4.9622 0.30933,10.96504 -0.64541,15.83104c-0.9028,4.51399 -1.93735,8.09462 -4.66102,11.86836c-0.8941,1.23881 -2.87195,1.6764 -3.3507,3.12722c-0.24269,0.73545 0.23986,1.54455 0.17813,2.31654c-0.18372,2.29772 -0.21326,4.62011 -0.63832,6.88562c-0.48325,2.57563 -2.40497,7.3645 -4.05908,9.46435c-2.6294,3.33796 -6.03249,2.97026 -9.86178,3.98138c-0.81211,0.21444 -1.67145,0.20039 -2.48893,0.39332c-0.34737,0.08198 -1.1579,0.76169 -0.80544,0.70551c2.91431,-0.46446 4.46312,-0.81019 7.22221,0.66624c8.78589,-2.29609 18.46209,-2.44365 27.51573,-2.44365c3.48469,0 8.03783,1.18194 11.29629,0.13532c0.57179,-0.18366 1.07862,-0.52975 1.631,-0.76546c0.30038,-0.12818 0.95167,0.00051 0.9243,-0.32493c-0.02699,-0.32091 -0.67829,0.05052 -0.96044,-0.10473c-1.55091,-0.85342 -3.02291,-1.84328 -4.51938,-2.78892c-1.27451,-0.80537 -4.89288,-3.52459 -5.31607,-5.03446c-0.38474,-1.37268 0.36444,-2.82777 0.54666,-4.24166c0.65898,-3.1875 1.6762,-5.64903 3.24229,-8.49771c0.61251,-1.11414 0.89072,-2.55696 1.92935,-3.29026c3.17298,-2.24021 6.79814,-0.37857 10.12544,-1.07351c1.06374,-0.22217 1.96092,-0.99966 3.02691,-1.21076c2.06411,-0.40877 4.18498,-0.44457 6.28024,-0.63832c1.16821,-0.10803 2.36166,-0.18864 3.5196,0c0.61969,0.10095 1.05663,0.90113 1.68219,0.84743c0.32834,-0.02819 -0.10434,-0.66117 -0.05554,-0.98708c0.16328,-1.0906 0.20603,-2.24404 0.6878,-3.23599c1.1602,-2.38881 3.58351,-4.98891 6.51994,-5.11187c1.27704,-0.05347 2.37789,0.94158 3.53956,1.4747c4.27915,1.96379 6.47071,5.17579 8.51123,9.29469c0.84584,4.22921 3.07582,5.66923 4.75897,9.47331c1.76899,3.99807 1.96182,9.01312 1.418,13.37812c-0.41621,3.34072 -2.61915,7.05991 -5.02688,9.45792c-1.20753,1.20265 -2.87769,1.84762 -4.16853,2.96037c-0.3585,0.30904 -1.11029,0.30649 -1.19118,0.77284c-0.12374,0.7134 0.60452,1.33844 0.70049,2.0561c0.14462,1.08147 0.01217,2.18216 0.01217,3.27325c0,4.70741 0.21725,10.02246 1.16222,14.64425c0.83075,4.33441 3.26428,8.14772 5.23305,12.08527c0.68959,1.37918 0.83119,3.13563 1.95323,4.19332c0.65668,0.61902 1.79736,0.55898 2.42153,1.21076c2.44822,2.55654 3.36204,7.12417 5.20191,10.13955c0.97981,1.60581 2.82133,2.50904 4.03042,3.95013c1.27373,1.51813 1.77441,2.83802 2.41199,4.00976c1.41529,-1.46183 3.17552,-0.20452 3.17552,-0.20452z" fill="#67ff00" stroke="none" stroke-width="0.5" stroke-linecap="butt" stroke-linejoin="miter"/></g></g></svg>